<?xml version="1.0"?>
<svg xmlns="http://www.w3.org/2000/svg" xmlns:xlink="http://www.w3.org/1999/xlink" xmlns:svgjs="http://svgjs.com/svgjs" version="1.1" width="512" height="512" x="0" y="0" viewBox="0 0 384 384" style="enable-background:new 0 0 512 512" xml:space="preserve" class=""><g><path xmlns="http://www.w3.org/2000/svg" d="m368 304v48c0 14.238281-17.199219 21.359375-27.28125 11.28125l-52.71875-59.28125h-224c-26.480469 0-48-21.519531-48-48v-192c0-26.480469 21.519531-48 48-48h256c26.480469 0 48 21.519531 48 48zm-162.398438-216.160156c.078126-.71875.160157-1.441406.160157-2.078125 0-7.441407-6.082031-13.761719-13.761719-13.761719-8.398438 0-14.878906 7.519531-13.601562 15.839844l13.601562 96.160156zm0 0" fill="#0066cb" data-original="#4dd0e1" style="" class=""/><g xmlns="http://www.w3.org/2000/svg" fill="#012e52"><path d="m320 0h-256c-35.289062 0-64 28.710938-64 64v192c0 35.289062 28.710938 64 64 64h216.816406l47.945313 53.910156c.207031.234375.421875.464844.644531.683594 6.144531 6.132812 14.289062 9.390625 22.601562 9.390625 4.128907 0 8.289063-.800781 12.273438-2.449219 11.976562-4.96875 19.71875-16.558594 19.71875-29.535156v-288c0-35.289062-28.710938-64-64-64zm-20.039062 293.367188c-.105469-.121094-.234376-.199219-.335938-.3125-.394531-.414063-.824219-.78125-1.257812-1.152344-.367188-.316406-.726563-.644532-1.128907-.925782-.429687-.3125-.902343-.5625-1.367187-.824218-.4375-.25-.863282-.511719-1.320313-.710938-.480469-.21875-.984375-.371094-1.488281-.539062-.476562-.160156-.949219-.335938-1.445312-.445313-.488282-.113281-1-.167969-1.503907-.234375-.546875-.070312-1.082031-.144531-1.632812-.167968-.167969-.015626-.320313-.054688-.480469-.054688h-224c-17.648438 0-32-14.351562-32-32v-192c0-17.648438 14.351562-32 32-32h256c17.648438 0 32 14.351562 32 32v240l.03125 47.921875zm0 0" fill="#ffffff" data-original="#012e52" style="" class=""/><path d="m192 224c-8.832031 0-16 7.167969-16 16v8c0 8.832031 7.167969 16 16 16s16-7.167969 16-16v-8c0-8.832031-7.167969-16-16-16zm0 0" fill="#ffffff" data-original="#012e52" style="" class=""/><path d="m192 56c-8.679688 0-16.910156 3.785156-22.574219 10.390625-5.664062 6.601563-8.160156 15.304687-6.867187 23.6875l13.601562 96.160156c1.113282 7.898438 7.863282 13.761719 15.839844 13.761719s14.726562-5.863281 15.839844-13.761719l13.671875-96.765625c.144531-1.289062.242187-2.578125.242187-3.710937.007813-16.410157-13.347656-29.761719-29.753906-29.761719zm0 0" fill="#ffffff" data-original="#012e52" style="" class=""/></g></g></svg>
