<?xml version="1.0"?>
<svg xmlns="http://www.w3.org/2000/svg" xmlns:xlink="http://www.w3.org/1999/xlink" xmlns:svgjs="http://svgjs.com/svgjs" version="1.1" width="512" height="512" x="0" y="0" viewBox="0 0 512 512" style="enable-background:new 0 0 512 512" xml:space="preserve" class=""><g>
<g xmlns="http://www.w3.org/2000/svg">
	<circle style="" cx="256" cy="256" r="256" fill="#ffffff" data-original="#cc4b4c" class=""/>
	<path style="" d="M476.69,256c0,2.913-0.088,5.914-0.177,8.828c-2.048,52.404-22.776,102.347-58.439,140.8   c-3.972,4.326-8.121,8.474-12.447,12.447c-38.453,35.662-88.396,56.39-140.8,58.439c-2.913,0.088-5.914,0.177-8.828,0.177   c-2.913,0-5.914-0.088-8.828-0.177c-52.404-2.048-102.347-22.777-140.8-58.439c-4.326-3.972-8.474-8.121-12.447-12.447   c-35.662-38.453-56.391-88.396-58.439-140.8c-0.088-2.913-0.177-5.914-0.177-8.828c0-2.913,0.088-5.914,0.177-8.828   c2.048-52.404,22.776-102.347,58.439-140.8c3.972-4.326,8.121-8.474,12.447-12.447c38.453-35.662,88.396-56.39,140.8-58.439   c2.913-0.088,5.914-0.177,8.828-0.177c2.913,0,5.914,0.088,8.828,0.177c52.404,2.048,102.347,22.777,140.8,58.439   c4.326,3.972,8.474,8.121,12.447,12.447c35.662,38.453,56.391,88.396,58.439,140.8C476.601,250.086,476.69,253.087,476.69,256z" fill="#0066cb" data-original="#ecf0f1" class=""/>
	<path style="" d="M274.716,246.112c-3.57-0.001-6.788-2.152-8.154-5.45c-1.366-3.298-0.611-7.094,1.913-9.619   l78.388-78.388c2.223-2.264,5.49-3.16,8.556-2.348c3.067,0.812,5.462,3.207,6.274,6.274c0.812,3.067-0.085,6.333-2.348,8.556   l-78.388,78.388C279.303,245.184,277.057,246.115,274.716,246.112z" fill="#ffffff" data-original="#cc4b4c" class=""/>
	<g>
		<path style="" d="M264.828,35.487v18.538c0,4.875-3.952,8.828-8.828,8.828s-8.828-3.952-8.828-8.828V35.487    c2.913-0.088,5.914-0.177,8.828-0.177C258.913,35.31,261.914,35.399,264.828,35.487z" fill="#ffffff" data-original="#35495e" class=""/>
		<path style="" d="M119.437,119.437c-1.679,1.633-3.926,2.55-6.268,2.56c-2.339-0.026-4.58-0.941-6.268-2.56    l-12.977-13.065c3.972-4.326,8.121-8.474,12.447-12.447l13.065,12.977C122.88,110.371,122.88,115.968,119.437,119.437z" fill="#ffffff" data-original="#35495e" class=""/>
		<path style="" d="M62.852,256c-0.015,4.869-3.958,8.813-8.828,8.828H35.487c-0.088-2.913-0.177-5.914-0.177-8.828    c0-2.913,0.088-5.914,0.177-8.828h18.538C58.894,247.187,62.838,251.131,62.852,256z" fill="#ffffff" data-original="#35495e" class=""/>
		<path style="" d="M119.437,405.098l-13.065,12.977c-4.326-3.972-8.474-8.121-12.447-12.447l12.977-13.065    c3.469-3.417,9.045-3.396,12.488,0.047C122.834,396.053,122.854,401.629,119.437,405.098z" fill="#ffffff" data-original="#35495e" class=""/>
		<path style="" d="M264.828,457.975v18.538c-2.913,0.088-5.914,0.177-8.828,0.177c-2.913,0-5.914-0.088-8.828-0.177    v-18.538c0-4.875,3.952-8.828,8.828-8.828S264.828,453.1,264.828,457.975z" fill="#ffffff" data-original="#35495e" class=""/>
		<path style="" d="M418.074,405.628c-3.972,4.326-8.121,8.474-12.447,12.447l-13.065-12.977    c-3.417-3.469-3.396-9.045,0.047-12.488c3.443-3.443,9.019-3.464,12.488-0.047L418.074,405.628z" fill="#ffffff" data-original="#35495e" class=""/>
		<path style="" d="M476.69,256c0,2.913-0.088,5.914-0.177,8.828h-18.538c-4.875,0-8.828-3.952-8.828-8.828    s3.952-8.828,8.828-8.828h18.538C476.601,250.086,476.69,253.087,476.69,256z" fill="#ffffff" data-original="#35495e" class=""/>
		<path style="" d="M418.074,106.372l-12.977,13.065c-1.688,1.619-3.929,2.534-6.268,2.56    c-2.342-0.01-4.589-0.927-6.268-2.56c-3.443-3.469-3.443-9.066,0-12.535l13.065-12.977    C409.953,97.898,414.102,102.047,418.074,106.372z" fill="#ffffff" data-original="#35495e" class=""/>
	</g>
	<path style="" d="M209.569,311.259c-3.57-0.001-6.788-2.152-8.154-5.45c-1.366-3.298-0.611-7.094,1.913-9.619   l27.716-27.715c3.447-3.447,9.036-3.447,12.483,0c3.447,3.447,3.447,9.036,0,12.483l-27.716,27.715   C214.157,310.331,211.911,311.261,209.569,311.259z" fill="#ffffff" data-original="#cc4b4c" class=""/>
	<path style="" d="M210.328,303.169c6.895,6.895,6.895,18.073,0,24.968l-24.968,24.968l-24.968-24.968l24.968-24.968   C192.255,296.274,203.433,296.274,210.328,303.169z" fill="#ffffff" data-original="#802f34" class=""/>
	<path style="" d="M275.686,273.655h77.418c9.722-0.07,17.585-7.934,17.655-17.655   c-0.029-9.739-7.916-17.627-17.655-17.655h-77.418l-2.03-2.03V114.759c-0.07-9.722-7.934-17.585-17.655-17.655   c-9.739,0.029-17.627,7.916-17.655,17.655v121.556L275.686,273.655z" fill="#ffffff" data-original="#4482c3" class=""/>
	<circle style="" cx="256" cy="256" r="26.483" fill="#ffffff" data-original="#35495e" class=""/>
</g>
<g xmlns="http://www.w3.org/2000/svg">
</g>
<g xmlns="http://www.w3.org/2000/svg">
</g>
<g xmlns="http://www.w3.org/2000/svg">
</g>
<g xmlns="http://www.w3.org/2000/svg">
</g>
<g xmlns="http://www.w3.org/2000/svg">
</g>
<g xmlns="http://www.w3.org/2000/svg">
</g>
<g xmlns="http://www.w3.org/2000/svg">
</g>
<g xmlns="http://www.w3.org/2000/svg">
</g>
<g xmlns="http://www.w3.org/2000/svg">
</g>
<g xmlns="http://www.w3.org/2000/svg">
</g>
<g xmlns="http://www.w3.org/2000/svg">
</g>
<g xmlns="http://www.w3.org/2000/svg">
</g>
<g xmlns="http://www.w3.org/2000/svg">
</g>
<g xmlns="http://www.w3.org/2000/svg">
</g>
<g xmlns="http://www.w3.org/2000/svg">
</g>
</g></svg>
