<?xml version="1.0"?>
<svg xmlns="http://www.w3.org/2000/svg" xmlns:xlink="http://www.w3.org/1999/xlink" xmlns:svgjs="http://svgjs.com/svgjs" version="1.1" width="512" height="512" x="0" y="0" viewBox="0 0 512 512" style="enable-background:new 0 0 512 512" xml:space="preserve"><g><g xmlns="http://www.w3.org/2000/svg"><g><path d="m111.35 468.397v-393.575c0-5.69 4.612-10.302 10.302-10.302h235.396c5.69 0 10.302 4.612 10.302 10.302v393.575c0 5.69-4.612 10.302-10.302 10.302h-235.397c-5.689 0-10.301-4.612-10.301-10.302z" fill="#3342aa" data-original="#3342aa" style=""/></g><g><path d="m344.455 478.699v-414.179h12.592c5.69 0 10.302 4.612 10.302 10.302v393.575c0 5.69-4.612 10.302-10.302 10.302z" fill="#2b3890" data-original="#2b3890" style=""/></g><g><path d="m152.976 214.479v-62.649c0-5.69 4.612-10.302 10.302-10.302h152.144c5.69 0 10.302 4.612 10.302 10.302v62.648c0 5.69-4.612 10.302-10.302 10.302h-152.145c-5.689.001-10.301-4.612-10.301-10.301z" fill="#b3e59f" data-original="#b3e59f" style=""/></g><g><path d="m315.422 141.528h-12.593v83.252h12.593c5.69 0 10.302-4.612 10.302-10.302v-62.648c0-5.689-4.613-10.302-10.302-10.302z" fill="#95d6a4" data-original="#95d6a4" style=""/></g><g><path d="m135.285 501.698v-22.999h208.13v22.999c0 5.69-4.612 10.302-10.302 10.302h-187.527c-5.689 0-10.301-4.612-10.301-10.302z" fill="#ffe07d" data-original="#ffe07d" style=""/></g><g><path d="m320.52 512v-33.301h22.894v22.999c0 5.69-4.612 10.302-10.302 10.302z" fill="#ffd064" data-original="#ffd064" style=""/></g><g><g><path d="m390.349 448.52h-22.999v-353.821h22.999c5.69 0 10.302 4.612 10.302 10.302v333.217c-.001 5.69-4.613 10.302-10.302 10.302z" fill="#242e7a" data-original="#242e7a" style=""/></g></g><g><path d="m178.056 295.545h-14.778c-5.69 0-10.302-4.612-10.302-10.302v-14.778c0-5.69 4.612-10.302 10.302-10.302h14.778c5.69 0 10.302 4.612 10.302 10.302v14.778c0 5.689-4.613 10.302-10.302 10.302z" fill="#ecf4ff" data-original="#ecf4ff" style=""/></g><g><path d="m246.739 295.545h-14.779c-5.69 0-10.302-4.612-10.302-10.302v-14.778c0-5.69 4.612-10.302 10.302-10.302h14.778c5.69 0 10.302 4.612 10.302 10.302v14.778c.001 5.689-4.612 10.302-10.301 10.302z" fill="#ecf4ff" data-original="#ecf4ff" style=""/></g><g><path d="m315.422 295.545h-14.778c-5.69 0-10.302-4.612-10.302-10.302v-14.778c0-5.69 4.612-10.302 10.302-10.302h14.778c5.69 0 10.302 4.612 10.302 10.302v14.778c0 5.689-4.613 10.302-10.302 10.302z" fill="#ecf4ff" data-original="#ecf4ff" style=""/></g><g><path d="m178.056 366.309h-14.778c-5.69 0-10.302-4.612-10.302-10.302v-14.778c0-5.69 4.612-10.302 10.302-10.302h14.778c5.69 0 10.302 4.612 10.302 10.302v14.778c0 5.69-4.613 10.302-10.302 10.302z" fill="#ecf4ff" data-original="#ecf4ff" style=""/></g><g><path d="m246.739 366.309h-14.779c-5.69 0-10.302-4.612-10.302-10.302v-14.778c0-5.69 4.612-10.302 10.302-10.302h14.778c5.69 0 10.302 4.612 10.302 10.302v14.778c.001 5.69-4.612 10.302-10.301 10.302z" fill="#ecf4ff" data-original="#ecf4ff" style=""/></g><g><path d="m315.422 366.309h-14.778c-5.69 0-10.302-4.612-10.302-10.302v-14.778c0-5.69 4.612-10.302 10.302-10.302h14.778c5.69 0 10.302 4.612 10.302 10.302v14.778c0 5.69-4.613 10.302-10.302 10.302z" fill="#ecf4ff" data-original="#ecf4ff" style=""/></g><g><path d="m178.056 437.073h-14.778c-5.69 0-10.302-4.612-10.302-10.302v-14.778c0-5.69 4.612-10.302 10.302-10.302h14.778c5.69 0 10.302 4.612 10.302 10.302v14.778c0 5.69-4.613 10.302-10.302 10.302z" fill="#ffe07d" data-original="#ffe07d" style=""/></g><g><path d="m246.739 437.073h-14.779c-5.69 0-10.302-4.612-10.302-10.302v-14.778c0-5.69 4.612-10.302 10.302-10.302h14.778c5.69 0 10.302 4.612 10.302 10.302v14.778c.001 5.69-4.612 10.302-10.301 10.302z" fill="#ecf4ff" data-original="#ecf4ff" style=""/></g><g><path d="m315.422 437.073h-14.778c-5.69 0-10.302-4.612-10.302-10.302v-14.778c0-5.69 4.612-10.302 10.302-10.302h14.778c5.69 0 10.302 4.612 10.302 10.302v14.778c0 5.69-4.613 10.302-10.302 10.302z" fill="#b3e59f" data-original="#b3e59f" style=""/></g><g><path d="m286.284 0h-93.868c-5.69 0-10.302 4.612-10.302 10.302v93.763h114.472v-93.763c-.001-5.69-4.613-10.302-10.302-10.302z" fill="#ecf4ff" data-original="#ecf4ff" style=""/></g><g><path d="m286.284 0h-12.592v104.065h22.894v-93.763c-.001-5.69-4.613-10.302-10.302-10.302z" fill="#cbe2ff" data-original="#cbe2ff" style=""/></g><g><path d="m263.285 41.027h-47.87c-4.268 0-7.726-3.459-7.726-7.726s3.459-7.726 7.726-7.726h47.87c4.268 0 7.726 3.459 7.726 7.726s-3.459 7.726-7.726 7.726z" fill="#bed8fb" data-original="#bed8fb" style=""/></g><g><path d="m263.285 78.49h-47.87c-4.268 0-7.726-3.459-7.726-7.726s3.459-7.726 7.726-7.726h47.87c4.268 0 7.726 3.459 7.726 7.726s-3.459 7.726-7.726 7.726z" fill="#bed8fb" data-original="#bed8fb" style=""/></g><g><path d="m312.195 111.791h-145.691c-4.268 0-7.726-3.459-7.726-7.726s3.459-7.726 7.726-7.726h145.691c4.268 0 7.726 3.459 7.726 7.726.001 4.267-3.458 7.726-7.726 7.726z" fill="#2b3890" data-original="#2b3890" style=""/></g></g></g></svg>
