<?xml version="1.0"?>
<svg xmlns="http://www.w3.org/2000/svg" xmlns:xlink="http://www.w3.org/1999/xlink" xmlns:svgjs="http://svgjs.com/svgjs" version="1.1" width="512" height="512" x="0" y="0" viewBox="0 0 512 512" style="enable-background:new 0 0 512 512" xml:space="preserve" class=""><g><g xmlns="http://www.w3.org/2000/svg"><path d="m384.533 512h-257.066c-70.285 0-127.467-57.182-127.467-127.467v-257.066c0-70.285 57.182-127.467 127.467-127.467h257.066c70.285 0 127.467 57.182 127.467 127.467v257.066c0 70.285-57.182 127.467-127.467 127.467z" fill="#0066cb" data-original="#0082f5" style="" class=""/><path d="m512 384.533v-257.066c0-70.285-57.182-127.467-127.467-127.467h-128.533v512h128.533c70.285 0 127.467-57.182 127.467-127.467z" fill="#0066cb" data-original="#0050be" style="" class=""/><path d="m127.467 30c-53.743 0-97.467 43.724-97.467 97.467v257.066c0 53.743 43.724 97.467 97.467 97.467h257.066c53.743 0 97.467-43.724 97.467-97.467v-257.066c0-53.743-43.724-97.467-97.467-97.467z" fill="#0066cb" data-original="#00b4ff" style="" class=""/><path d="m482 384.533v-257.066c0-53.743-43.724-97.467-97.467-97.467h-128.533v452h128.533c53.743 0 97.467-43.724 97.467-97.467z" fill="#0066cb" data-original="#0082f5" style="" class=""/><circle cx="256" cy="127.467" fill="#ffffff" r="47.134" data-original="#fffaec" style="" class=""/><path d="m278.147 431.667h-44.295c-15.877 0-30.059-9.476-36.128-24.141-6.07-14.664-2.744-31.388 8.475-42.606l2.667-2.667v-92.786l-3.75-4.498c-9.665-11.604-11.773-27.936-5.376-41.613 6.414-13.686 20.313-22.522 35.413-22.522h20.847c25.759 0 47.134 20.812 47.134 47.133v114.286l2.663 2.663c11.223 11.222 14.549 27.946 8.479 42.611-6.07 14.663-20.252 24.14-36.129 24.14z" fill="#ffffff" data-original="#fffaec" style="" class=""/><g fill="#dadcdf"><path d="m303.134 127.467c0-25.989-21.145-47.133-47.134-47.133v94.266c25.989 0 47.134-21.144 47.134-47.133z" fill="#f9fbff" data-original="#dadcdf" style="" class=""/><path d="m314.275 407.526c6.07-14.665 2.744-31.389-8.479-42.611l-2.663-2.663v-114.285c0-26.322-21.375-47.133-47.134-47.133v230.833h22.147c15.878 0 30.06-9.477 36.129-24.141z" fill="#f9fbff" data-original="#dadcdf" style="" class=""/></g></g></g></svg>
