<?xml version="1.0"?>
<svg xmlns="http://www.w3.org/2000/svg" xmlns:xlink="http://www.w3.org/1999/xlink" xmlns:svgjs="http://svgjs.com/svgjs" version="1.1" width="512" height="512" x="0" y="0" viewBox="0 0 512 512" style="enable-background:new 0 0 512 512" xml:space="preserve" class=""><g><g xmlns="http://www.w3.org/2000/svg"><g><path d="m38.815 146.902h402.045v248.5h-402.045z" fill="#ffffff" transform="matrix(0 1 -1 0 510.99 31.315)" data-original="#3342aa" style="" class=""/></g><g><path d="m151.953 260.041h402.045v22.224h-402.045z" fill="#ffffff" transform="matrix(0 1 -1 0 624.128 -81.823)" data-original="#2b3890" style="" class=""/></g><g><path d="m199.431 101.445h80.813v167.687h-80.813z" fill="#0066cb" transform="matrix(0 1 -1 0 425.126 -54.549)" data-original="#b3e59f" style="" class=""/></g><g><path d="m272.163 174.177h80.813v22.224h-80.813z" fill="#0066cb" transform="matrix(0 1 -1 0 497.858 -127.281)" data-original="#95d6a4" style="" class=""/></g><g><path d="m223.675 387.321h32.325v202.033h-32.325z" fill="#ffe07d" transform="matrix(0 1 -1 0 728.175 248.5)" data-original="#ffe07d" style="" class=""/></g><g><path d="m313.579 477.226h32.325v22.224h-32.325z" fill="#ffd064" transform="matrix(0 1 -1 0 818.079 158.596)" data-original="#ffd064" style=""/></g><g><g><path d="m364.087 99.425h32.325v343.455h-32.325z" fill="#ffffff" data-original="#242e7a" style="" class=""/></g></g><g><path d="m155.994 260.041h34.346v34.346h-34.346z" fill="#ecf4ff" data-original="#ecf4ff" style="" class=""/></g><g><path d="m222.665 260.041h34.346v34.346h-34.346z" fill="#ecf4ff" data-original="#ecf4ff" style="" class=""/></g><g><path d="m289.335 260.041h34.346v34.346h-34.346z" fill="#ecf4ff" data-original="#ecf4ff" style="" class=""/></g><g><path d="m155.994 328.732h34.346v34.346h-34.346z" fill="#ecf4ff" data-original="#ecf4ff" style="" class=""/></g><g><path d="m222.665 328.732h34.346v34.346h-34.346z" fill="#ecf4ff" data-original="#ecf4ff" style="" class=""/></g><g><path d="m289.335 328.732h34.346v34.346h-34.346z" fill="#ecf4ff" data-original="#ecf4ff" style="" class=""/></g><g><path d="m155.994 397.423h34.346v34.346h-34.346z" fill="#ffe07d" data-original="#ffe07d" style="" class=""/></g><g><path d="m222.665 397.423h34.346v34.346h-34.346z" fill="#ecf4ff" data-original="#ecf4ff" style="" class=""/></g><g><path d="m289.335 397.423h34.346v34.346h-34.346z" fill="#0066cb" data-original="#b3e59f" style="" class=""/></g><g><path d="m184.279 7.5h111.118v101.016h-111.118z" fill="#ecf4ff" transform="matrix(-1 0 0 -1 479.675 116.016)" data-original="#ecf4ff" style="" class=""/></g><g><path d="m273.173 7.5h22.224v101.016h-22.224z" fill="#cbe2ff" transform="matrix(-1 0 0 -1 568.569 116.016)" data-original="#cbe2ff" style="" class=""/></g><g><path d="m178.24 152.38c4.143 0 7.5-3.358 7.5-7.5s-3.357-7.5-7.5-7.5h-22.25c-4.143 0-7.5 3.358-7.5 7.5v80.82c0 4.142 3.357 7.5 7.5 7.5h167.69c4.143 0 7.5-3.358 7.5-7.5v-80.82c0-4.142-3.357-7.5-7.5-7.5h-110.34c-4.143 0-7.5 3.358-7.5 7.5s3.357 7.5 7.5 7.5h102.84v65.82h-152.69v-65.82z" fill="#0066cb" data-original="#000000" style="" class=""/><path d="m197.84 260.041c0-4.142-3.357-7.5-7.5-7.5h-34.346c-4.143 0-7.5 3.358-7.5 7.5v34.346c0 4.142 3.357 7.5 7.5 7.5h34.346c4.143 0 7.5-3.358 7.5-7.5zm-15 26.845h-19.346v-19.346h19.346z" fill="#0066cb" data-original="#000000" style="" class=""/><path d="m264.51 260.041c0-4.142-3.357-7.5-7.5-7.5h-34.345c-4.143 0-7.5 3.358-7.5 7.5v34.346c0 4.142 3.357 7.5 7.5 7.5h34.345c4.143 0 7.5-3.358 7.5-7.5zm-15 26.845h-19.345v-19.346h19.345z" fill="#0066cb" data-original="#000000" style="" class=""/><path d="m331.181 260.041c0-4.142-3.357-7.5-7.5-7.5h-34.346c-4.143 0-7.5 3.358-7.5 7.5v34.346c0 4.142 3.357 7.5 7.5 7.5h34.346c4.143 0 7.5-3.358 7.5-7.5zm-15 26.845h-19.346v-19.346h19.346z" fill="#0066cb" data-original="#000000" style="" class=""/><path d="m197.84 328.732c0-4.142-3.357-7.5-7.5-7.5h-34.346c-4.143 0-7.5 3.358-7.5 7.5v34.345c0 4.142 3.357 7.5 7.5 7.5h34.346c4.143 0 7.5-3.358 7.5-7.5zm-15 26.845h-19.346v-19.345h19.346z" fill="#0066cb" data-original="#000000" style="" class=""/><path d="m264.51 328.732c0-4.142-3.357-7.5-7.5-7.5h-34.345c-4.143 0-7.5 3.358-7.5 7.5v34.345c0 4.142 3.357 7.5 7.5 7.5h34.345c4.143 0 7.5-3.358 7.5-7.5zm-15 26.845h-19.345v-19.345h19.345z" fill="#0066cb" data-original="#000000" style="" class=""/><path d="m331.181 328.732c0-4.142-3.357-7.5-7.5-7.5h-34.346c-4.143 0-7.5 3.358-7.5 7.5v34.345c0 4.142 3.357 7.5 7.5 7.5h34.346c4.143 0 7.5-3.358 7.5-7.5zm-15 26.845h-19.346v-19.345h19.346z" fill="#0066cb" data-original="#000000" style="" class=""/><path d="m190.34 389.923h-34.346c-4.143 0-7.5 3.358-7.5 7.5v34.345c0 4.142 3.357 7.5 7.5 7.5h34.346c4.143 0 7.5-3.358 7.5-7.5v-34.345c0-4.142-3.358-7.5-7.5-7.5zm-7.5 34.345h-19.346v-19.345h19.346z" fill="#0066cb" data-original="#000000" style="" class=""/><path d="m257.01 389.923h-34.345c-4.143 0-7.5 3.358-7.5 7.5v34.345c0 4.142 3.357 7.5 7.5 7.5h34.345c4.143 0 7.5-3.358 7.5-7.5v-34.345c0-4.142-3.358-7.5-7.5-7.5zm-7.5 34.345h-19.345v-19.345h19.345z" fill="#0066cb" data-original="#000000" style="" class=""/><path d="m323.681 389.923h-34.346c-4.143 0-7.5 3.358-7.5 7.5v34.345c0 4.142 3.357 7.5 7.5 7.5h34.346c4.143 0 7.5-3.358 7.5-7.5v-34.345c0-4.142-3.358-7.5-7.5-7.5zm-7.5 34.345h-19.346v-19.345h19.346z" fill="#0066cb" data-original="#000000" style="" class=""/><path d="m396.41 144.79c4.143 0 7.5-3.358 7.5-7.5v-37.87c0-4.142-3.357-7.5-7.5-7.5h-24.82v-21.79c0-4.142-3.357-7.5-7.5-7.5h-61.193v-55.13c0-4.142-3.357-7.5-7.5-7.5h-111.119c-4.143 0-7.5 3.358-7.5 7.5v55.13h-61.188c-4.143 0-7.5 3.358-7.5 7.5v305.84c0 4.142 3.357 7.5 7.5 7.5s7.5-3.358 7.5-7.5v-298.34h53.688v23.386h-7.652c-4.143 0-7.5 3.358-7.5 7.5s3.357 7.5 7.5 7.5h141.423c4.143 0 7.5-3.358 7.5-7.5s-3.357-7.5-7.5-7.5h-7.652v-23.386h53.693v387.04h-233.5v-53.6c0-4.142-3.357-7.5-7.5-7.5s-7.5 3.358-7.5 7.5v61.1c0 4.142 3.357 7.5 7.5 7.5h15.731v24.83c0 4.142 3.357 7.5 7.5 7.5h202.032c4.143 0 7.5-3.358 7.5-7.5v-24.83h15.736c4.143 0 7.5-3.358 7.5-7.5v-21.79h24.82c4.143 0 7.5-3.358 7.5-7.5v-270.49c0-4.142-3.357-7.5-7.5-7.5s-7.5 3.358-7.5 7.5v262.99h-17.32v-328.46h17.32v30.37c.001 4.142 3.359 7.5 7.501 7.5zm-204.632-43.774v-86.016h96.118v86.016zm141.576 395.984h-187.033v-17.33h187.032v17.33z" fill="#0066cb" data-original="#000000" style="" class=""/><path d="m216.604 47.325h46.468c4.143 0 7.5-3.358 7.5-7.5s-3.357-7.5-7.5-7.5h-46.468c-4.143 0-7.5 3.358-7.5 7.5s3.357 7.5 7.5 7.5z" fill="#0066cb" data-original="#000000" style="" class=""/><path d="m263.071 68.691h-46.468c-4.143 0-7.5 3.358-7.5 7.5s3.357 7.5 7.5 7.5h46.468c4.143 0 7.5-3.358 7.5-7.5s-3.357-7.5-7.5-7.5z" fill="#0066cb" data-original="#000000" style="" class=""/></g></g></g></svg>
