<?xml version="1.0"?>
<svg xmlns="http://www.w3.org/2000/svg" xmlns:xlink="http://www.w3.org/1999/xlink" xmlns:svgjs="http://svgjs.com/svgjs" version="1.1" width="512" height="512" x="0" y="0" viewBox="0 0 512 512" style="enable-background:new 0 0 512 512" xml:space="preserve" class=""><g><g xmlns="http://www.w3.org/2000/svg"><g><path d="m178.24 152.38c4.143 0 7.5-3.358 7.5-7.5s-3.357-7.5-7.5-7.5h-22.25c-4.143 0-7.5 3.358-7.5 7.5v80.82c0 4.142 3.357 7.5 7.5 7.5h167.69c4.143 0 7.5-3.358 7.5-7.5v-80.82c0-4.142-3.357-7.5-7.5-7.5h-110.34c-4.143 0-7.5 3.358-7.5 7.5s3.357 7.5 7.5 7.5h102.84v65.82h-152.69v-65.82z" fill="#ffffff" data-original="#000000" style="" class=""/><path d="m197.84 260.041c0-4.142-3.357-7.5-7.5-7.5h-34.346c-4.143 0-7.5 3.358-7.5 7.5v34.346c0 4.142 3.357 7.5 7.5 7.5h34.346c4.143 0 7.5-3.358 7.5-7.5zm-15 26.845h-19.346v-19.346h19.346z" fill="#ffffff" data-original="#000000" style="" class=""/><path d="m264.51 260.041c0-4.142-3.357-7.5-7.5-7.5h-34.345c-4.143 0-7.5 3.358-7.5 7.5v34.346c0 4.142 3.357 7.5 7.5 7.5h34.345c4.143 0 7.5-3.358 7.5-7.5zm-15 26.845h-19.345v-19.346h19.345z" fill="#ffffff" data-original="#000000" style="" class=""/><path d="m331.181 260.041c0-4.142-3.357-7.5-7.5-7.5h-34.346c-4.143 0-7.5 3.358-7.5 7.5v34.346c0 4.142 3.357 7.5 7.5 7.5h34.346c4.143 0 7.5-3.358 7.5-7.5zm-15 26.845h-19.346v-19.346h19.346z" fill="#ffffff" data-original="#000000" style="" class=""/><path d="m197.84 328.732c0-4.142-3.357-7.5-7.5-7.5h-34.346c-4.143 0-7.5 3.358-7.5 7.5v34.345c0 4.142 3.357 7.5 7.5 7.5h34.346c4.143 0 7.5-3.358 7.5-7.5zm-15 26.845h-19.346v-19.345h19.346z" fill="#ffffff" data-original="#000000" style="" class=""/><path d="m264.51 328.732c0-4.142-3.357-7.5-7.5-7.5h-34.345c-4.143 0-7.5 3.358-7.5 7.5v34.345c0 4.142 3.357 7.5 7.5 7.5h34.345c4.143 0 7.5-3.358 7.5-7.5zm-15 26.845h-19.345v-19.345h19.345z" fill="#ffffff" data-original="#000000" style="" class=""/><path d="m331.181 328.732c0-4.142-3.357-7.5-7.5-7.5h-34.346c-4.143 0-7.5 3.358-7.5 7.5v34.345c0 4.142 3.357 7.5 7.5 7.5h34.346c4.143 0 7.5-3.358 7.5-7.5zm-15 26.845h-19.346v-19.345h19.346z" fill="#ffffff" data-original="#000000" style="" class=""/><path d="m190.34 389.923h-34.346c-4.143 0-7.5 3.358-7.5 7.5v34.345c0 4.142 3.357 7.5 7.5 7.5h34.346c4.143 0 7.5-3.358 7.5-7.5v-34.345c0-4.142-3.358-7.5-7.5-7.5zm-7.5 34.345h-19.346v-19.345h19.346z" fill="#ffffff" data-original="#000000" style="" class=""/><path d="m257.01 389.923h-34.345c-4.143 0-7.5 3.358-7.5 7.5v34.345c0 4.142 3.357 7.5 7.5 7.5h34.345c4.143 0 7.5-3.358 7.5-7.5v-34.345c0-4.142-3.358-7.5-7.5-7.5zm-7.5 34.345h-19.345v-19.345h19.345z" fill="#ffffff" data-original="#000000" style="" class=""/><path d="m323.681 389.923h-34.346c-4.143 0-7.5 3.358-7.5 7.5v34.345c0 4.142 3.357 7.5 7.5 7.5h34.346c4.143 0 7.5-3.358 7.5-7.5v-34.345c0-4.142-3.358-7.5-7.5-7.5zm-7.5 34.345h-19.346v-19.345h19.346z" fill="#ffffff" data-original="#000000" style="" class=""/><path d="m396.41 144.79c4.143 0 7.5-3.358 7.5-7.5v-37.87c0-4.142-3.357-7.5-7.5-7.5h-24.82v-21.79c0-4.142-3.357-7.5-7.5-7.5h-61.193v-55.13c0-4.142-3.357-7.5-7.5-7.5h-111.119c-4.143 0-7.5 3.358-7.5 7.5v55.13h-61.188c-4.143 0-7.5 3.358-7.5 7.5v305.84c0 4.142 3.357 7.5 7.5 7.5s7.5-3.358 7.5-7.5v-298.34h53.688v23.386h-7.652c-4.143 0-7.5 3.358-7.5 7.5s3.357 7.5 7.5 7.5h141.423c4.143 0 7.5-3.358 7.5-7.5s-3.357-7.5-7.5-7.5h-7.652v-23.386h53.693v387.04h-233.5v-53.6c0-4.142-3.357-7.5-7.5-7.5s-7.5 3.358-7.5 7.5v61.1c0 4.142 3.357 7.5 7.5 7.5h15.731v24.83c0 4.142 3.357 7.5 7.5 7.5h202.032c4.143 0 7.5-3.358 7.5-7.5v-24.83h15.736c4.143 0 7.5-3.358 7.5-7.5v-21.79h24.82c4.143 0 7.5-3.358 7.5-7.5v-270.49c0-4.142-3.357-7.5-7.5-7.5s-7.5 3.358-7.5 7.5v262.99h-17.32v-328.46h17.32v30.37c.001 4.142 3.359 7.5 7.501 7.5zm-204.632-43.774v-86.016h96.118v86.016zm141.576 395.984h-187.033v-17.33h187.032v17.33z" fill="#ffffff" data-original="#000000" style="" class=""/><path d="m216.604 47.325h46.468c4.143 0 7.5-3.358 7.5-7.5s-3.357-7.5-7.5-7.5h-46.468c-4.143 0-7.5 3.358-7.5 7.5s3.357 7.5 7.5 7.5z" fill="#ffffff" data-original="#000000" style="" class=""/><path d="m263.071 68.691h-46.468c-4.143 0-7.5 3.358-7.5 7.5s3.357 7.5 7.5 7.5h46.468c4.143 0 7.5-3.358 7.5-7.5s-3.357-7.5-7.5-7.5z" fill="#ffffff" data-original="#000000" style="" class=""/></g></g></g></svg>
