<?xml version="1.0"?>
<svg xmlns="http://www.w3.org/2000/svg" xmlns:xlink="http://www.w3.org/1999/xlink" xmlns:svgjs="http://svgjs.com/svgjs" version="1.1" width="512" height="512" x="0" y="0" viewBox="0 0 511 511.999" style="enable-background:new 0 0 512 512" xml:space="preserve" class=""><g><path xmlns="http://www.w3.org/2000/svg" d="m399.976562 337.242188h-354.652343l-37.320313 37.320312v129.929688h429.289063v-129.929688zm0 0" fill="#ffffff" data-original="#96d1f3" style="" class=""/><path xmlns="http://www.w3.org/2000/svg" d="m75.347656 337.242188h-30.023437l-37.320313 37.320312v129.929688h30.027344v-129.929688zm0 0" fill="#ffffff" data-original="#3ca6e6" style="" class=""/><path xmlns="http://www.w3.org/2000/svg" d="m222.648438 37.53125c-54.882813 0-99.375 44.492188-99.375 99.375v108.492188c12.269531 12.269531 21.800781 21.796874 31.375 31.371093h82.46875c2.167968 2.171875 3.386718 3.386719 5.558593 5.558594v19.332031c-2.171875 2.167969-3.390625 3.386719-5.558593 5.558594h-52.023438 75.109375c24.144531-24.144531 37.679687-37.679688 61.820313-61.820312v-108.492188c.003906-54.882812-44.488282-99.375-99.375-99.375zm0 0" fill="#ffdaaa" data-original="#ffdaaa" style=""/><path xmlns="http://www.w3.org/2000/svg" d="m153.296875 136.90625c0-49.78125 36.605469-91.011719 84.363281-98.246094-4.894531-.742187-9.90625-1.128906-15.011718-1.128906-54.882813 0-99.375 44.492188-99.375 99.375v108.492188c12.269531 12.269531 21.800781 21.796874 31.375 31.371093h30.023437c-9.574219-9.574219-19.105469-19.105469-31.375-31.371093zm0 0" fill="#ffb680" data-original="#ffb680" style=""/><path xmlns="http://www.w3.org/2000/svg" d="m84.660156 238.527344h38.613282v-78.746094h-38.613282c-4.414062 4.414062-6.886718 6.886719-11.300781 11.304688v56.136718c4.414063 4.414063 6.886719 6.890625 11.300781 11.304688zm0 0" fill="#e5ebf5" data-original="#e5ebf5" style=""/><path xmlns="http://www.w3.org/2000/svg" d="m103.382812 227.222656v-56.140625l11.304688-11.300781h-30.027344l-11.300781 11.300781v56.140625l11.300781 11.304688h30.027344zm0 0" fill="#cad8ea" data-original="#cad8ea" style=""/><path xmlns="http://www.w3.org/2000/svg" d="m206.503906 125.253906h114.839844c-5.773438-49.390625-47.753906-87.722656-98.695312-87.722656-21.421876 0-41.261719 6.777344-57.492188 18.308594v28.0625c0 22.835937 18.511719 41.351562 41.347656 41.351562zm0 0" fill="#d15573" data-original="#d15573" style="" class=""/><path xmlns="http://www.w3.org/2000/svg" d="m195.183594 83.902344v-28.0625c12.355468-8.777344 26.808594-14.792969 42.457031-17.167969-4.890625-.742187-9.894531-1.140625-14.992187-1.140625-21.421876 0-41.261719 6.777344-57.492188 18.308594v28.0625c0 22.835937 18.511719 41.351562 41.347656 41.351562h30.027344c-22.835938 0-41.347656-18.515625-41.347656-41.351562zm0 0" fill="#c21d44" data-original="#c21d44" style="" class=""/><path xmlns="http://www.w3.org/2000/svg" d="m165.15625 124.59375v-68.753906c-25.34375 18.011718-41.882812 47.605468-41.882812 81.066406v34.433594c23.550781-2.5625 41.882812-22.507813 41.882812-46.746094zm0 0" fill="#d15573" data-original="#d15573" style="" class=""/><path xmlns="http://www.w3.org/2000/svg" d="m153.296875 136.90625c0-17.042969 4.300781-33.078125 11.859375-47.097656v-33.96875c-25.34375 18.011718-41.882812 47.605468-41.882812 81.066406v34.433594c11.910156-1.296875 22.480468-7.042969 30.023437-15.535156zm0 0" fill="#c21d44" data-original="#c21d44" style="" class=""/><path xmlns="http://www.w3.org/2000/svg" d="m154.644531 276.769531h82.472657c2.167968 2.171875 3.386718 3.390625 5.558593 5.558594v19.332031c-2.171875 2.171875-3.390625 3.386719-5.558593 5.558594h-95.722657l-48.570312-48.570312v-20.121094h30.449219v6.871094zm0 0" fill="#cad8ea" data-original="#cad8ea" style=""/><path xmlns="http://www.w3.org/2000/svg" d="m122.851562 258.648438v-20.121094h-30.027343v20.121094l48.570312 48.570312h30.023438zm0 0" fill="#b0c4e0" data-original="#b0c4e0" style="" class=""/><path xmlns="http://www.w3.org/2000/svg" d="m292.566406 337.242188v-62.386719l-32.359375 32.363281h-107.476562v30.082031l57.40625 21.089844h25.023437l57.40625-21.089844zm0 0" fill="#ffdaaa" data-original="#ffdaaa" style=""/><path xmlns="http://www.w3.org/2000/svg" d="m182.753906 337.296875.003906-.054687v-30.023438h-30.027343v30.078125l57.40625 21.09375h25.023437l2.5-.921875zm0 0" fill="#ffb680" data-original="#ffb680" style=""/><path xmlns="http://www.w3.org/2000/svg" d="m123.273438 159.78125v-21.625c0-54.796875 43.828124-100.214844 98.625-100.621094 55.226562-.410156 100.128906 44.238282 100.128906 99.371094v32.882812h14.542968c6.046876-6.046874 9.433594-9.4375 15.480469-15.480468v-15.976563c0-71.40625-57.242187-130.414062-128.644531-130.824219-71.699219-.410156-130.15625 57.796876-130.15625 129.398438v22.875zm0 0" fill="#cad8ea" data-original="#cad8ea" style=""/><path xmlns="http://www.w3.org/2000/svg" d="m123.273438 136.90625c0-66.261719 50.0625-121.042969 114.351562-128.523438-4.667969-.542968-9.410156-.847656-14.21875-.875-71.699219-.410156-130.15625 57.796876-130.15625 129.398438v22.875h30.023438zm0 0" fill="#b0c4e0" data-original="#b0c4e0" style="" class=""/><path xmlns="http://www.w3.org/2000/svg" d="m210.136719 358.390625-57.40625-21.09375v25.984375l22.421875 39.042969zm0 0" fill="#ffffff" data-original="#96d1f3" style="" class=""/><path xmlns="http://www.w3.org/2000/svg" d="m235.152344 358.390625h-25.015625l-12.734375 15.984375 8.21875 31.683594h34.046875l8.222656-31.683594zm0 0" fill="#d15573" data-original="#d15573" style="" class=""/><path xmlns="http://www.w3.org/2000/svg" d="m235.160156 358.390625 57.40625-21.09375v25.984375l-22.417968 39.042969zm0 0" fill="#ffffff" data-original="#96d1f3" style="" class=""/><path xmlns="http://www.w3.org/2000/svg" d="m182.753906 363.28125v-14.953125l-30.023437-11.03125v25.984375l22.421875 39.042969 17.445312-21.90625zm0 0" fill="#ffffff" data-original="#3ca6e6" style="" class=""/><path xmlns="http://www.w3.org/2000/svg" d="m265.1875 358.390625 27.378906-10.0625v-11.03125l-57.40625 21.09375 34.988282 43.933594 12.578124-21.90625zm0 0" fill="#ffffff" data-original="#3ca6e6" style="" class=""/><path xmlns="http://www.w3.org/2000/svg" d="m250.964844 504.492188-11.296875-98.433594h-34.046875l-11.292969 98.433594zm0 0" fill="#d15573" data-original="#d15573" style="" class=""/><path xmlns="http://www.w3.org/2000/svg" d="m230.152344 358.390625h-20.015625l-12.734375 15.984375 8.21875 31.683594h20.019531l-8.222656-31.683594zm0 0" fill="#c21d44" data-original="#c21d44" style="" class=""/><path xmlns="http://www.w3.org/2000/svg" d="m205.621094 406.058594-11.292969 98.433594h20.015625l11.296875-98.433594zm0 0" fill="#c21d44" data-original="#c21d44" style="" class=""/><path xmlns="http://www.w3.org/2000/svg" d="m406.554688 396.828125-10.617188-10.613281 10.617188-10.613282 10.613281 10.613282zm-17.691407-17.691406-10.617187-10.613281 10.617187-10.617188 10.613281 10.617188zm0 0" fill="#ffffff" data-original="#ffffff" style=""/><path xmlns="http://www.w3.org/2000/svg" d="m85.320312 246.035156v15.722656l52.964844 52.964844h125.03125l66.214844-66.21875v-50.695312h-15.011719v44.480468l-57.421875 57.421876h-6.917968v-20.492188l-9.953126-9.953125h-82.472656l-26.976562-26.976563v-64.648437c24.296875-5.738281 41.886718-27.453125 41.886718-53.046875v-5.503906c8.789063 8.453125 20.714844 13.667968 33.84375 13.667968h107.910157c.15625 3.535157.101562.875.101562 44.535157h25.160157l19.878906-19.875v-19.085938c-.003906-76.070312-61.4375-138.332031-136.917969-138.332031-36.367187 0-70.605469 14.136719-96.472656 39.863281-26.070313 25.914063-40.425781 60.382813-40.425781 97.042969v15.367188h-4.191407l-15.699219 15.699218v62.359375l15.699219 15.703125zm66.214844 38.242188h82.472656l1.160157 1.160156v13.113281l-1.160157 1.160157h-89.503906l-44.171875-44.171876v-9.507812h15.433594v2.472656zm6.117188-159.683594c0 17.304688-11.09375 32.164062-26.871094 37.453125v-23.894531c0-25.554688 10.28125-48.792969 26.871094-65.667969zm48.851562-6.847656c-18.660156 0-33.839844-15.179688-33.839844-33.84375v-23.789063c14.21875-9.410156 31.144532-14.9375 49.289063-15.074219 45.273437-.316406 81.910156 31.714844 90.558594 72.707032zm-105.75 19.160156c0-32.636719 12.785156-63.320312 35.996094-86.398438 23.207031-23.078124 53.957031-35.726562 86.613281-35.492187 66.820313.382813 121.179688 55.703125 121.179688 123.316406v12.867188l-11.082031 11.082031h-3.929688v-25.375c0-28.699219-11.21875-55.640625-31.585938-75.859375-20.367187-20.214844-47.359374-31.210937-76.105468-31.019531-58.488282.433594-106.074219 48.9375-106.074219 108.125v14.121094h-15.011719zm-19.890625 37.285156 6.90625-6.90625h27.996094v63.738282h-27.996094l-6.90625-6.90625zm0 0" fill="#000000" data-original="#000000" style="" class=""/><path xmlns="http://www.w3.org/2000/svg" d="m403.085938 329.734375h-82.496094v15.015625h76.277344l32.921874 32.921875v119.316406h-60.636718v-45.90625h-15.011719v45.90625h-96.480469l-10.375-90.398437 4.09375-15.78125 19.777344 24.835937 28.917969-50.363281v-62.402344h-15.011719v29.179688l-51.238281 18.824218h-22.351563l-56.152344-20.628906-10.09375-3.710937c0 12.8125.023438 9.308593-.09375 15.960937l.09375.03125v22.746094l28.917969 50.363281 19.769531-24.832031 4.089844 15.777344-10.371094 90.398437h-96.476562v-45.90625h-15.011719v45.90625h-60.632812v-119.316406l32.921875-32.921875h76.273437v-15.015625h-82.492187l-41.714844 41.71875v140.546875h444.300781v-140.546875zm-133.945313 59.273437-21.628906-27.160156c5.921875-2.175781 31.558593-11.59375 37.550781-13.796875v13.226563zm-108.902344-27.730468v-13.226563l37.550781 13.796875-21.628906 27.160156zm53.519531 4.617187h17.785157l8.140625 10.222657-5.820313 22.433593h-22.433593l-5.820313-22.425781zm-11.015624 131.09375 9.574218-83.421875h20.660156l9.570313 83.421875zm0 0" fill="#000000" data-original="#000000" style="" class=""/></g></svg>
